<svg xmlns="http://www.w3.org/2000/svg" xmlns:xlink="http://www.w3.org/1999/xlink" width="60" zoomAndPan="magnify" viewBox="0 0 45 44.999999" height="60" preserveAspectRatio="xMidYMid meet" version="1.0"><defs><clipPath id="1fa519e550"><path d="M 5.65625 10.289062 L 15 10.289062 L 15 20 L 5.65625 20 Z M 5.65625 10.289062 " clip-rule="nonzero"/></clipPath><clipPath id="904d350acb"><path d="M 23 14 L 39.40625 14 L 39.40625 29 L 23 29 Z M 23 14 " clip-rule="nonzero"/></clipPath><clipPath id="ba2013469d"><path d="M 36 10.289062 L 39.40625 10.289062 L 39.40625 15 L 36 15 Z M 36 10.289062 " clip-rule="nonzero"/></clipPath><clipPath id="1ae8bdf983"><path d="M 18 15 L 27 15 L 27 25 L 18 25 Z M 18 15 " clip-rule="nonzero"/></clipPath><clipPath id="a79ceec9eb"><path d="M 16.023438 19.832031 L 24.84375 14.136719 L 29.316406 21.066406 L 20.496094 26.761719 Z M 16.023438 19.832031 " clip-rule="nonzero"/></clipPath><clipPath id="0024dbee73"><path d="M 16.023438 19.832031 L 24.84375 14.136719 L 29.316406 21.066406 L 20.496094 26.761719 Z M 16.023438 19.832031 " clip-rule="nonzero"/></clipPath><clipPath id="40e79c9b85"><path d="M 19 17 L 26 17 L 26 24 L 19 24 Z M 19 17 " clip-rule="nonzero"/></clipPath><clipPath id="aa775db675"><path d="M 16.023438 19.832031 L 24.84375 14.136719 L 29.316406 21.066406 L 20.496094 26.761719 Z M 16.023438 19.832031 " clip-rule="nonzero"/></clipPath><clipPath id="7556d1dbd0"><path d="M 16.023438 19.832031 L 24.84375 14.136719 L 29.316406 21.066406 L 20.496094 26.761719 Z M 16.023438 19.832031 " clip-rule="nonzero"/></clipPath><clipPath id="153dab0cf4"><path d="M 18 16 L 27 16 L 27 26 L 18 26 Z M 18 16 " clip-rule="nonzero"/></clipPath><clipPath id="1f23b2aece"><path d="M 16.023438 19.832031 L 24.84375 14.136719 L 29.316406 21.066406 L 20.496094 26.761719 Z M 16.023438 19.832031 " clip-rule="nonzero"/></clipPath><clipPath id="0e5530dd2d"><path d="M 16.023438 19.832031 L 24.84375 14.136719 L 29.316406 21.066406 L 20.496094 26.761719 Z M 16.023438 19.832031 " clip-rule="nonzero"/></clipPath></defs><g clip-path="url(#1fa519e550)"><path fill="#1d1d1e" d="M 13.023438 19.839844 L 5.65625 12.949219 C 5.6875 10.902344 7.574219 10.824219 7.574219 10.824219 L 14.730469 18.054688 C 13.628906 18.492188 13.195312 19.347656 13.023438 19.839844 Z M 13.023438 19.839844 " fill-opacity="1" fill-rule="nonzero"/></g><path fill="#1d1d1e" d="M 31.042969 28.671875 C 30.292969 30.257812 27.402344 34.6875 19.605469 31.894531 C 11.660156 28.632812 14.355469 21.628906 14.355469 21.628906 C 14.402344 21.5 14.464844 21.382812 14.546875 21.269531 L 13.4375 20.234375 C 13.488281 19.980469 13.796875 18.875 15.117188 18.457031 L 16.730469 20.078125 C 18.640625 19.710938 21.417969 20.085938 24.273438 21.234375 C 25.027344 21.535156 25.742188 21.871094 26.398438 22.234375 C 26.40625 22.40625 26.417969 22.566406 26.4375 22.742188 C 25.722656 22.347656 24.945312 21.972656 24.113281 21.632812 C 19.800781 19.902344 15.734375 19.917969 15.03125 21.671875 C 14.328125 23.417969 17.253906 26.238281 21.566406 27.976562 C 21.75 28.050781 21.9375 28.121094 22.117188 28.1875 L 23.296875 28.660156 C 24.59375 29.179688 26.140625 29.285156 27.214844 29.285156 C 27.972656 29.285156 28.488281 29.234375 28.503906 29.230469 C 28.597656 29.210938 29.671875 29.117188 31.042969 28.671875 Z M 31.042969 28.671875 " fill-opacity="1" fill-rule="nonzero"/><g clip-path="url(#904d350acb)"><path fill="#f8951d" d="M 39.027344 14.207031 C 39.027344 14.207031 37.503906 15.886719 34.320312 16.414062 C 30.265625 16.8125 28.519531 19.785156 28.519531 19.785156 C 28.519531 19.785156 28.28125 19.207031 29.070312 18.148438 C 29.070312 18.148438 26.136719 18.738281 27.089844 23.757812 C 27.1875 24.289062 27.203125 24.75 27.132812 25.144531 C 27.132812 25.144531 26.957031 27.378906 23.480469 28.183594 C 24.707031 28.671875 26.1875 28.773438 27.214844 28.773438 C 27.953125 28.773438 28.453125 28.722656 28.453125 28.722656 C 28.453125 28.722656 32.371094 28.390625 34.886719 25.828125 C 36.878906 23.789062 36.890625 21.871094 36.808594 21.167969 C 36.804688 21.167969 36.207031 22.410156 34.839844 22.949219 L 34.835938 22.945312 C 34.835938 22.945312 34.664062 22.992188 34.484375 22.992188 C 34.164062 22.992188 33.789062 22.835938 34.183594 21.984375 C 34.648438 21.402344 35.378906 20.769531 36.527344 20.285156 C 39.335938 19.09375 39.027344 14.207031 39.027344 14.207031 Z M 35.148438 23.878906 C 35.148438 23.878906 33.324219 27.832031 27.660156 27.300781 C 27.660156 27.300781 28.824219 25.78125 28.367188 23.332031 C 28.058594 21.226562 29.789062 18.996094 33.394531 18.695312 C 33.394531 18.695312 30.824219 20.160156 31.082031 22.878906 C 31.324219 25.589844 35.148438 23.878906 35.148438 23.878906 Z M 35.148438 23.878906 " fill-opacity="1" fill-rule="nonzero"/></g><g clip-path="url(#ba2013469d)"><path fill="#f8951d" d="M 38.214844 12.296875 C 38.28125 10.597656 39.003906 10.308594 39.003906 10.308594 C 39.003906 10.308594 37.273438 10.515625 37.203125 11.769531 C 37.136719 13.027344 37.355469 13.285156 36.753906 14.144531 C 36.753906 14.144531 38.148438 13.992188 38.214844 12.296875 Z M 38.214844 12.296875 " fill-opacity="1" fill-rule="nonzero"/></g><path fill="#f8951d" d="M 30.472656 16.074219 C 31.09375 15.492188 30.636719 14.765625 30.636719 14.765625 C 30.636719 14.765625 30.769531 15.183594 30.164062 15.648438 C 29.5625 16.113281 29.902344 16.796875 29.902344 16.796875 C 29.902344 16.796875 29.851562 16.65625 30.472656 16.074219 Z M 30.472656 16.074219 " fill-opacity="1" fill-rule="nonzero"/><g clip-path="url(#1ae8bdf983)"><g clip-path="url(#a79ceec9eb)"><g clip-path="url(#0024dbee73)"><path fill="#e74747" d="M 23.15625 15.519531 C 23.613281 15.414062 24.007812 15.417969 24.289062 15.441406 C 24.539062 15.496094 25.148438 15.664062 25.660156 16.207031 C 26.378906 16.972656 26.378906 17.914062 26.371094 18.121094 C 26.328125 18.808594 26.160156 20.035156 25.441406 21.375 C 24.679688 22.792969 23.671875 23.652344 23.105469 24.070312 C 22.0625 24.839844 20.121094 25.167969 19.175781 24.34375 C 18.625 23.859375 18.476562 23.15625 18.476562 23.15625 C 18.394531 22.773438 18.4375 22.449219 18.480469 22.25 C 18.589844 21.9375 18.726562 21.605469 18.898438 21.261719 C 19.371094 20.308594 19.953125 19.589844 20.453125 19.078125 C 20.410156 18.785156 20.382812 18.289062 20.570312 17.722656 C 20.910156 16.695312 21.710938 16.160156 21.953125 16.011719 C 22.210938 15.851562 22.621094 15.636719 23.15625 15.519531 Z M 23.15625 15.519531 " fill-opacity="1" fill-rule="nonzero"/></g></g></g><g clip-path="url(#40e79c9b85)"><g clip-path="url(#aa775db675)"><g clip-path="url(#7556d1dbd0)"><path fill="#1d1d1e" d="M 19.367188 22.183594 L 19.570312 22.050781 C 19.613281 22.023438 19.664062 22.027344 19.699219 22.0625 C 19.933594 22.265625 20.207031 22.476562 20.523438 22.6875 C 21 23 21.453125 23.226562 21.847656 23.386719 C 21.914062 23.410156 21.933594 23.488281 21.898438 23.546875 C 21.851562 23.613281 21.808594 23.679688 21.761719 23.746094 C 21.734375 23.789062 21.679688 23.804688 21.632812 23.785156 C 21.214844 23.613281 20.722656 23.371094 20.207031 23.023438 C 19.875 22.796875 19.59375 22.570312 19.355469 22.351562 C 19.304688 22.304688 19.308594 22.21875 19.367188 22.183594 Z M 20.179688 20.515625 C 20.15625 20.554688 20.128906 20.59375 20.097656 20.628906 C 20.066406 20.679688 20.074219 20.742188 20.121094 20.78125 C 20.457031 21.0625 20.882812 21.371094 21.394531 21.652344 C 22.113281 22.050781 22.789062 22.285156 23.324219 22.429688 C 23.375 22.441406 23.433594 22.417969 23.453125 22.367188 C 23.480469 22.316406 23.5 22.261719 23.527344 22.210938 C 23.554688 22.148438 23.527344 22.082031 23.464844 22.058594 C 22.898438 21.839844 22.285156 21.570312 21.644531 21.234375 C 21.167969 20.988281 20.734375 20.734375 20.335938 20.484375 C 20.285156 20.449219 20.214844 20.464844 20.179688 20.515625 Z M 21.125 18.933594 C 21.101562 18.988281 21.078125 19.042969 21.050781 19.09375 C 21.035156 19.136719 21.046875 19.183594 21.085938 19.210938 C 21.4375 19.476562 21.914062 19.777344 22.515625 20.03125 C 23.199219 20.320312 23.820312 20.453125 24.292969 20.519531 C 24.335938 20.523438 24.378906 20.496094 24.394531 20.457031 C 24.429688 20.367188 24.464844 20.273438 24.5 20.183594 C 24.523438 20.128906 24.488281 20.066406 24.433594 20.054688 C 23.875 19.941406 23.226562 19.769531 22.53125 19.488281 C 22.054688 19.300781 21.628906 19.09375 21.261719 18.890625 C 21.207031 18.863281 21.148438 18.886719 21.125 18.933594 Z M 21.304688 17.253906 C 21.269531 17.308594 21.292969 17.382812 21.355469 17.40625 C 21.816406 17.585938 22.320312 17.761719 22.867188 17.917969 C 23.789062 18.1875 24.652344 18.355469 25.414062 18.457031 C 25.46875 18.464844 25.519531 18.429688 25.527344 18.378906 C 25.554688 18.261719 25.585938 18.140625 25.609375 18.023438 C 25.625 17.964844 25.582031 17.90625 25.523438 17.898438 C 24.886719 17.8125 24.203125 17.695312 23.480469 17.539062 C 22.78125 17.386719 22.128906 17.210938 21.53125 17.027344 C 21.484375 17.011719 21.4375 17.03125 21.414062 17.074219 C 21.375 17.132812 21.339844 17.191406 21.304688 17.253906 Z M 21.304688 17.253906 " fill-opacity="1" fill-rule="nonzero"/></g></g></g><g clip-path="url(#153dab0cf4)"><g clip-path="url(#1f23b2aece)"><g clip-path="url(#0e5530dd2d)"><path fill="#1d1d1e" d="M 26.574219 18.429688 C 26.542969 19.136719 26.394531 20.394531 25.691406 21.761719 C 24.949219 23.203125 23.945312 24.066406 23.378906 24.488281 C 22.339844 25.261719 20.378906 25.566406 19.410156 24.699219 C 19.167969 24.484375 19 24.230469 18.886719 24.007812 C 18.957031 24.097656 19.035156 24.179688 19.128906 24.261719 C 20.097656 25.128906 22.058594 24.824219 23.097656 24.054688 C 23.664062 23.632812 24.667969 22.769531 25.410156 21.324219 C 26.109375 19.960938 26.261719 18.699219 26.292969 17.992188 C 26.296875 17.832031 26.285156 17.242188 25.964844 16.617188 C 26.566406 17.378906 26.574219 18.230469 26.574219 18.429688 Z M 26.574219 18.429688 " fill-opacity="1" fill-rule="nonzero"/></g></g></g></svg>